<svg  width="251" height="82" viewBox="0 0 251 82" fill="none" xmlns="http://www.w3.org/2000/svg">
<path d="M4.18125 81.9648H244.166C244.166 81.9648 250.912 82.8091 250.912 75.2107C250.912 75.2107 252.177 69.0897 244.798 69.0897C237.42 69.0897 243.323 68.8786 243.323 68.8786H188.966H18.5346H6.28946C6.28946 68.8786 0.175652 69.7229 0.175652 74.9996C0.175652 74.9996 -1.30009 81.9648 4.18125 81.9648Z" fill="#F9FAFE"/>
<path d="M89.7921 76.8992C91.1449 73.3462 91.9355 69.5118 91.9355 65.5015C91.9355 48.0004 77.7753 33.8237 60.2948 33.8237C42.8142 33.8237 28.6541 48.0004 28.6541 65.5015C28.6541 69.5294 29.4446 73.3638 30.7974 76.8992H89.7921Z" fill="#F9FAFE"/>
<path d="M207.536 72.3085C208.607 69.5294 209.222 66.5041 209.222 63.3381C209.222 49.5835 198.066 38.4144 184.328 38.4144C170.589 38.4144 159.433 49.5659 159.433 63.3381C159.433 66.5041 160.048 69.5294 161.12 72.3085H207.536Z" fill="#F9FAFE"/>
<path d="M175.087 75.2458C177.476 69.0545 178.847 62.3531 178.847 55.335C178.847 24.7653 154.093 0 123.576 0C93.06 0 68.3062 24.7653 68.3062 55.335C68.3062 62.3707 69.6589 69.0721 72.0658 75.2458H175.087Z" fill="#F9FAFE"/>
</svg>
