<svg width="288" height="520" viewBox="0 0 288 520" fill="none" xmlns="http://www.w3.org/2000/svg">
<path d="M44.324 281.698C44.324 281.698 68.8399 265.571 109.54 251.937C108.883 251.67 108.527 251.51 108.527 251.51C109.291 251.527 110.02 251.51 110.766 251.527C125.99 246.472 143.418 241.809 162.64 238.445C92.8939 221.143 -4.38191e-05 152.152 -4.38191e-05 152.152C98.3656 131.593 122.366 144.338 122.366 144.338C142.761 148.04 160.064 152.792 174.702 158.097C154.344 131.148 134.216 96.8659 115.74 53.2032C115.74 53.2032 166.122 66.5886 221.62 107.777C186.445 43.8406 181.542 -1.03559e-05 181.542 -1.03559e-05C219.773 13.9193 258.607 46.564 258.607 46.564L260.721 99.1086L273.139 61.4089C283.514 73.9755 292.379 86.9871 300 100.034L300 406.794C289.749 424.149 276.514 442.465 259.495 461.297C259.495 461.297 259.478 461.208 259.46 461.083C234.802 494.084 209.717 520 209.717 520C205.774 466.334 209.682 439.189 213.075 426.498C213.004 426.552 212.933 426.605 212.933 426.605C212.986 426.534 213.04 426.463 213.111 426.391C215.065 419.147 216.824 416.637 216.824 416.637C219.542 408.182 222.384 400.44 225.333 393.32C172.411 454.141 104.814 470.001 104.814 470.001C120.608 388.46 170.954 337.464 219.95 306.279C176.23 311.512 118.547 307.187 44.324 281.698Z" fill="#1C1C1C"/>
</svg>
